<svg width="100" height="100" viewBox="0 0 100 100" fill="none" xmlns="http://www.w3.org/2000/svg">
<path d="M81.25 100H18.75C8.39375 100 0 91.6062 0 81.25V18.75C0 8.39375 8.39375 0 18.75 0H81.25C91.6062 0 100 8.39375 100 18.75V81.25C100 91.6062 91.6062 100 81.25 100Z" fill="#EFF8FD"/>
<path d="M52.6031 33H48.9562V38.8125C48.9562 39.6656 48.2469 40.375 47.3937 40.375C46.5406 40.375 45.8312 39.6656 45.8312 38.8125V33H41.1437C40.2906 33 39.5812 33.7094 39.5812 34.5625V37.1656H41.1437C43.1437 37.1656 44.7906 38.8125 44.7906 40.8125V49.6656H53.6437C53.8312 49.6656 53.9969 49.6875 54.1656 49.7281V34.5625C54.1656 33.7094 53.4594 33 52.6031 33Z" fill="#48B0E4"/>
<path d="M41.1469 39.25H37.5V45.2719C37.5 46.1469 36.7906 46.8344 35.9375 46.8344C35.0844 46.8344 34.375 46.1469 34.375 45.2719V39.25H30.7281C29.875 39.25 29.1656 39.9594 29.1656 40.8125V49.6656H42.7062V40.8125C42.7094 39.9594 42 39.25 41.1469 39.25Z" fill="#48B0E4"/>
<path d="M53.6469 51.75H26.5625C25.7094 51.75 25 52.4594 25 53.3125V62.6875C25 63.5406 25.7094 64.25 26.5625 64.25H27.25C27.1469 63.75 27.0844 63.2281 27.0844 62.6875C27.0844 58.375 30.5844 54.875 34.8969 54.875C39.2094 54.875 42.7094 58.375 42.7094 62.6875C42.7094 63.2281 42.6469 63.75 42.5437 64.25H53.6469C54.5 64.25 55.2094 63.5406 55.2094 62.6875V53.3125C55.2094 52.4594 54.5 51.75 53.6469 51.75Z" fill="#238ABD"/>
<path d="M65.1031 39.25H58.8531C58 39.25 57.2906 39.9594 57.2906 40.8125V62.6875C57.2906 58.375 60.7906 54.875 65.1031 54.875C69.4156 54.875 72.9156 58.375 72.9156 62.6875C72.9156 63.2281 72.8531 63.75 72.75 64.25H73.4375C74.2906 64.25 75 63.5406 75 62.6875V49.1469C75 43.6875 70.5625 39.25 65.1031 39.25Z" fill="#238ABD"/>
<path d="M65.1031 68.4186C61.9437 68.4186 59.375 65.8499 59.375 62.6905C59.375 59.5312 61.9437 56.9624 65.1031 56.9624C68.2625 56.9624 70.8312 59.5312 70.8312 62.6905C70.8344 65.8468 68.2625 68.4186 65.1031 68.4186Z" fill="#48B0E4"/>
<path d="M34.8969 68.4186C31.7375 68.4186 29.1687 65.8499 29.1687 62.6905C29.1687 59.5312 31.7375 56.9624 34.8969 56.9624C38.0562 56.9624 40.625 59.528 40.625 62.6874C40.625 65.8468 38.0562 68.4186 34.8969 68.4186Z" fill="#48B0E4"/>
</svg>
