<svg width="100" height="100" viewBox="0 0 100 100" fill="none" xmlns="http://www.w3.org/2000/svg">
<path d="M81.25 100H18.75C8.39375 100 0 91.6062 0 81.25V18.75C0 8.39375 8.39375 0 18.75 0H81.25C91.6062 0 100 8.39375 100 18.75V81.25C100 91.6062 91.6062 100 81.25 100Z" fill="#F0F8EF"/>
<path d="M74.325 41.4149L50.8875 25.2685C50.3531 24.8998 49.65 24.8998 49.1156 25.2685L25.6781 41.4149C25.2531 41.7055 25 42.1867 25 42.7023V72.9108C25 74.0607 25.9312 74.9919 27.0844 74.9919H31.25V49.9927C31.25 48.8428 32.1812 47.9084 33.3344 47.9084H66.6687C67.8187 47.9084 68.75 48.8428 68.75 49.9927V74.9919H72.9156C74.0688 74.9919 75 74.0607 75 72.9076V42.6992C75 42.1867 74.7469 41.7055 74.325 41.4149Z" fill="#69D566"/>
<path d="M44.2719 64.5767V66.1391C44.2719 67.0016 43.5719 67.7016 42.7094 67.7016C41.8469 67.7016 41.1469 67.0016 41.1469 66.1391V64.5767H37.5C36.925 64.5767 36.4594 65.0423 36.4594 65.6173V73.9514C36.4594 74.5264 36.925 74.992 37.5 74.992H47.9156C48.4906 74.992 48.9562 74.5264 48.9562 73.9514V65.6173C48.9562 65.0423 48.4906 64.5767 47.9156 64.5767H44.2719Z" fill="#A0EC9E"/>
<path d="M58.8531 64.5767V66.1391C58.8531 67.0016 58.1531 67.7016 57.2906 67.7016C56.4281 67.7016 55.7281 67.0016 55.7281 66.1391V64.5767H52.0812C51.5062 64.5767 51.0406 65.0423 51.0406 65.6173V73.9514C51.0406 74.5264 51.5062 74.992 52.0812 74.992H62.5C63.075 74.992 63.5406 74.5264 63.5406 73.9514V65.6173C63.5406 65.0423 63.075 64.5767 62.5 64.5767H58.8531Z" fill="#A0EC9E"/>
<path d="M51.5625 52.0771V53.6396C51.5625 54.5021 50.8625 55.2021 50 55.2021C49.1375 55.2021 48.4375 54.5021 48.4375 53.6396V52.0771H44.7906C44.2156 52.0771 43.75 52.5428 43.75 53.1177V61.4519C43.75 62.0268 44.2156 62.4924 44.7906 62.4924H55.2063C55.7844 62.4924 56.25 62.0268 56.25 61.4519V53.1177C56.25 52.5428 55.7844 52.0771 55.2094 52.0771H51.5625Z" fill="#A0EC9E"/>
</svg>
