<svg width="100" height="100" viewBox="0 0 100 100" fill="none" xmlns="http://www.w3.org/2000/svg">
<path d="M81.25 100H18.75C8.39375 100 0 91.6062 0 81.25V18.75C0 8.39375 8.39375 0 18.75 0H81.25C91.6062 0 100 8.39375 100 18.75V81.25C100 91.6062 91.6062 100 81.25 100Z" fill="#EFF8FD"/>
<path d="M58.5719 75C58.4688 75 58.3657 74.9969 58.2626 74.9875C40.5813 73.6188 26.2876 59.3312 25.0094 41.7531C24.9313 40.6656 25.3063 39.5844 26.0376 38.7906C26.7688 38 27.7626 37.5594 28.8407 37.5531L36.0282 37.5C37.8219 37.5 39.3657 38.7 39.7969 40.4188L41.2969 46.3781C41.6782 47.8906 41.1126 49.4719 39.8594 50.4062L37.2688 52.3375C39.6626 56.5906 43.2407 60.1906 47.5251 62.6469L49.5376 59.9844C50.4719 58.7469 52.0469 58.1844 53.5688 58.5594L59.5688 60.05C61.2938 60.4781 62.5001 62.0156 62.5001 63.7875V71.1438C62.5001 72.2219 62.0657 73.2188 61.2719 73.95C60.5438 74.625 59.5719 75 58.5719 75Z" fill="#238ABD"/>
<path d="M56.25 25C49.3157 25 43.2657 28.7937 40.0188 34.4031C41.8782 35.4594 43.2876 37.2281 43.8344 39.4062L45.3344 45.3625C46.0688 48.2812 45.1188 51.3156 42.9063 53.2906C43.9907 54.6562 45.2282 55.9 46.5969 56.9969C48.1157 55.2844 50.3219 54.2813 52.6219 54.2813C53.2719 54.2813 53.925 54.3594 54.5594 54.5187L60.5688 56.0125C62.8094 56.5687 64.6282 58.025 65.6782 59.9375C71.2438 56.675 75 50.65 75 43.75C75 33.4125 66.5875 25 56.25 25ZM54.6875 46.875C55.55 46.875 56.25 47.575 56.25 48.4375C56.25 49.3 55.55 50 54.6875 50H49.4782C48.6157 50 47.9157 49.3 47.9157 48.4375V45.0531C47.9157 42.9 49.6688 41.1469 51.8219 41.1469C52.5407 41.1469 53.125 40.5625 53.125 39.8438C53.125 39.125 52.5407 38.5406 51.8219 38.5406H49.4782C48.6157 38.5406 47.9157 37.8406 47.9157 36.9781C47.9157 36.1156 48.6157 35.4156 49.4782 35.4156H51.8219C54.2626 35.4156 56.25 37.4 56.25 39.8438C56.25 42.2875 54.2657 44.2719 51.8219 44.2719C51.3907 44.2719 51.0407 44.6219 51.0407 45.0531V46.875H54.6875ZM66.6657 48.4375C66.6657 49.3 65.9657 50 65.1032 50C64.2407 50 63.5407 49.3 63.5407 48.4375V44.2719H61.9782C59.9688 44.2719 58.3313 42.6375 58.3313 40.625V36.9781C58.3313 36.1156 59.0313 35.4156 59.8938 35.4156C60.7563 35.4156 61.4563 36.1156 61.4563 36.9781V40.625C61.4563 40.9125 61.6907 41.1469 61.9782 41.1469H63.5407V36.9812C63.5407 36.1187 64.2407 35.4187 65.1032 35.4187C65.9657 35.4187 66.6657 36.1187 66.6657 36.9812V48.4375Z" fill="#48B0E4"/>
</svg>
