<svg width="100" height="100" viewBox="0 0 100 100" fill="none" xmlns="http://www.w3.org/2000/svg">
<path d="M81.25 100H18.75C8.39375 100 0 91.6062 0 81.25V18.75C0 8.39375 8.39375 0 18.75 0H81.25C91.6062 0 100 8.39375 100 18.75V81.25C100 91.6062 91.6062 100 81.25 100Z" fill="#F0F8EF"/>
<path d="M61.4588 47.916C53.9933 47.916 47.9153 53.9909 47.9153 61.4564C47.9153 68.9219 53.9902 75 61.4588 75C68.9274 75 74.9992 68.9251 74.9992 61.4596C74.9992 53.994 68.9243 47.916 61.4588 47.916ZM68.2337 58.144L60.9432 66.4782C60.5651 66.9126 60.0213 67.1688 59.4432 67.1876C59.4213 67.1876 59.3963 67.1876 59.3745 67.1876C58.8245 67.1876 58.2932 66.9688 57.9026 66.5782L53.737 62.4127C52.9246 61.6002 52.9246 60.2814 53.737 59.4658C54.5495 58.6502 55.8683 58.6533 56.6839 59.4658L59.2745 62.0564L65.0994 55.3971C65.8587 54.5347 67.1743 54.444 68.04 55.2003C68.9056 55.9628 68.9931 57.2752 68.2337 58.144Z" fill="#69D566"/>
<path d="M59.7495 31.3132L43.081 25.0633C42.831 24.9789 42.581 24.9789 42.331 25.0633L25.6625 31.3132C25.2687 31.4601 25 31.8538 25 32.2913V45.688C25 64.6877 42.3122 68.6876 42.481 68.7282C42.5622 68.7501 42.6247 68.7501 42.7091 68.7501C42.7935 68.7501 42.856 68.7501 42.9372 68.7282C42.9778 68.7282 43.7903 68.5407 45.0403 68.0626C44.2091 66.022 43.7497 63.7908 43.7497 61.4596C43.7497 52.0441 51.1246 44.313 60.4182 43.7724V32.2944C60.4151 31.8538 60.1463 31.4601 59.7495 31.3132Z" fill="#A0EC9E"/>
</svg>
