<svg width="100" height="100" viewBox="0 0 100 100" fill="none" xmlns="http://www.w3.org/2000/svg">
<path d="M81.25 100H18.75C8.39375 100 0 91.6062 0 81.25V18.75C0 8.39375 8.39375 0 18.75 0H81.25C91.6062 0 100 8.39375 100 18.75V81.25C100 91.6062 91.6062 100 81.25 100Z" fill="#EFF8FD"/>
<path d="M58.8531 58.3345H41.1438C39.1344 58.3345 37.4969 59.9688 37.4969 61.9813V71.3564C37.5 73.3657 39.1344 75.0001 41.1469 75.0001H58.8563C60.8656 75.0001 62.5 73.3657 62.5 71.3532V61.9782C62.5 59.9688 60.8657 58.3345 58.8531 58.3345ZM56.7719 65.6251H51.5625C50.7 65.6251 50 64.9251 50 64.0626C50 63.2001 50.7 62.5001 51.5625 62.5001H56.7719C57.6344 62.5001 58.3344 63.2001 58.3344 64.0626C58.3344 64.9251 57.6344 65.6251 56.7719 65.6251Z" fill="#48B0E4"/>
<path d="M50 25C36.2156 25 25 36 25 49.5219V50.5188C25 51.3813 25.7 52.0813 26.5625 52.0813C27.425 52.0813 28.125 51.3813 28.125 50.5188C28.125 48.0781 30.0531 46.0906 32.4219 46.0906C34.7906 46.0906 36.7188 48.075 36.7188 50.5188C36.7188 51.3813 37.4188 52.0813 38.2813 52.0813C39.1438 52.0813 39.8438 51.3813 39.8438 50.5188C39.8438 48.0781 41.7719 46.0906 44.1406 46.0906C46.5094 46.0906 48.4375 48.075 48.4375 50.5188V52.6031C48.4375 53.4656 49.1375 54.1656 50 54.1656C50.8625 54.1656 51.5625 53.4656 51.5625 52.6031V50.5188C51.5625 48.0781 53.4906 46.0906 55.8594 46.0906C58.2281 46.0906 60.1563 48.075 60.1563 50.5188C60.1563 51.3813 60.8563 52.0813 61.7188 52.0813C62.5813 52.0813 63.2813 51.3813 63.2813 50.5188C63.2813 48.0781 65.2094 46.0906 67.5781 46.0906C69.9469 46.0906 71.875 48.075 71.875 50.5188C71.875 51.3813 72.575 52.0813 73.4375 52.0813C74.3 52.0813 75 51.3813 75 50.5188V49.5219C75 36 63.7844 25 50 25ZM55.8125 42.25C53.2125 42.25 50.9719 43.7281 50 45.8344C49.0281 43.7281 46.7875 42.25 44.1875 42.25C42.8688 42.25 41.6406 42.6281 40.625 43.2719C41.6563 35.7281 44.575 30.7938 50 27.0813C55.4313 30.8125 58.3469 35.7438 59.3781 43.2719C58.3594 42.6281 57.1313 42.25 55.8125 42.25Z" fill="#238ABD"/>
</svg>
