<svg width="100" height="100" viewBox="0 0 100 100" fill="none" xmlns="http://www.w3.org/2000/svg">
<path d="M81.25 100H18.75C8.39375 100 0 91.6062 0 81.25V18.75C0 8.39375 8.39375 0 18.75 0H81.25C91.6062 0 100 8.39375 100 18.75V81.25C100 91.6062 91.6062 100 81.25 100Z" fill="#F0F8EF"/>
<path d="M53.3912 30.074C45.1345 30.074 38.4148 36.7904 38.4148 45.0504C38.4148 53.3104 45.1345 60.0268 53.3912 60.0268C61.648 60.0268 68.3677 53.3104 68.3677 45.0504C68.3677 36.7904 61.648 30.074 53.3912 30.074ZM43.469 51.3497C48.7767 49.896 45.8083 45.0761 48.9147 44.4567C54.0394 43.3496 55.0567 37.2942 52.9933 33.3022C54.0747 33.2669 55.0407 33.3343 56.3467 33.6745C55.9231 38.3628 58.593 43.3015 63.5927 42.7271L64.8891 42.5731C65.0014 43.0897 65.072 43.6224 65.1105 44.1615C61.1538 43.9561 62.7519 47.2903 59.4338 45.9457C52.9869 43.4973 47.5573 50.9068 51.3086 56.6221C48.0194 56.0316 45.2051 54.0709 43.469 51.3497Z" fill="#69D566"/>
<path d="M68.5153 60.1744C69.141 59.5486 69.141 58.5314 68.5153 57.9056C67.8895 57.2799 66.8723 57.2799 66.2465 57.9056C54.7839 69.365 35.209 61.1275 35.209 45.0471C35.209 37.1819 40.1509 30.6772 46.7807 28.1004C47.6054 27.7795 48.0162 26.8489 47.6953 26.0241C47.3744 25.1962 46.4373 24.7887 45.619 25.1096C37.8019 28.1453 32 35.802 32 45.0471C32 56.2177 40.491 65.251 51.2508 66.3196V70.7192H49.1104C47.9295 70.7192 46.97 71.6787 46.97 72.8596C46.97 74.0405 47.9263 75 49.1104 75H57.6688C58.8498 75 59.8093 74.0405 59.8093 72.8596C59.8093 71.6787 58.853 70.7192 57.6688 70.7192H55.5284V66.3164C60.2746 65.8479 64.8891 63.8006 68.5153 60.1744Z" fill="#A0EC9E"/>
</svg>
