<svg width="100" height="100" viewBox="0 0 100 100" fill="none" xmlns="http://www.w3.org/2000/svg">
<path d="M81.25 100H18.75C8.39375 100 0 91.6062 0 81.25V18.75C0 8.39375 8.39375 0 18.75 0H81.25C91.6062 0 100 8.39375 100 18.75V81.25C100 91.6062 91.6062 100 81.25 100Z" fill="#EFF8FD"/>
<path d="M35.7281 56.875H29.4375L29.1875 58.1469C29.1031 58.6062 29.2281 59.0844 29.5219 59.4375C29.8125 59.7906 30.2719 60 30.7312 60H35.5031C35.4406 59.6656 35.4187 59.3125 35.4187 58.9594C35.4156 58.2312 35.5219 57.5437 35.7281 56.875ZM57.9781 35.5844C57.6875 35.2094 57.25 35 56.7687 35H34.8937C34.1437 35 33.4969 35.5406 33.3531 36.2719L33.2094 37.0844H38.0219C40.0219 37.0844 41.6687 38.7312 41.6687 40.7312C41.6687 42.0656 40.9406 43.2094 39.8781 43.8562C40.9406 44.5031 41.6687 45.6469 41.6687 46.9812C41.6687 48.3156 40.9406 49.4594 39.8781 50.1062C40.525 50.5031 41.0437 51.0844 41.3562 51.7937C41.7937 51.7094 42.2531 51.6687 42.7094 51.6687C46.7281 51.6687 50 54.9375 50 58.9594C50 59.3125 49.9781 59.6687 49.9156 60H52.0812C52.8094 60 53.4562 59.4781 53.6031 58.7719L58.2906 36.8969C58.3968 36.4375 58.2906 35.9594 57.9781 35.5844Z" fill="#238ABD"/>
<path d="M65.1031 41.25H60.6438C59.8938 41.25 59.2688 41.7719 59.1031 42.4781L55.7688 58.1031C55.6656 58.5625 55.7688 59.0406 56.0813 59.4156C56.3719 59.7906 56.8094 60 57.2906 60H58.4156C58.3531 59.6656 58.3313 59.3125 58.3313 58.9594C58.3313 54.9375 61.6031 51.6687 65.6219 51.6687C69.6406 51.6687 72.9125 54.9406 72.9125 58.9594C72.9125 59.1875 72.9125 59.3969 72.8719 59.625C73.1437 59.4156 73.3312 59.125 73.3937 58.7719L74.9562 51.4812C74.9781 51.375 75 51.25 75 51.1469C75 45.6875 70.5625 41.25 65.1031 41.25Z" fill="#238ABD"/>
<path d="M38.0219 42.2935H30.7281C29.8656 42.2935 29.1656 41.5935 29.1656 40.731C29.1656 39.8685 29.8656 39.1685 30.7281 39.1685H38.0187C38.8812 39.1685 39.5812 39.8685 39.5812 40.731C39.5812 41.5935 38.8844 42.2935 38.0219 42.2935Z" fill="#48B0E4"/>
<path d="M38.0219 48.5435H28.6469C27.7844 48.5435 27.0844 47.8435 27.0844 46.981C27.0844 46.1185 27.7844 45.4185 28.6469 45.4185H38.0219C38.8844 45.4185 39.5844 46.1185 39.5844 46.981C39.5844 47.8435 38.8844 48.5435 38.0219 48.5435Z" fill="#48B0E4"/>
<path d="M38.0219 54.7935H26.5625C25.7 54.7935 25 54.0935 25 53.231C25 52.3685 25.7 51.6685 26.5625 51.6685H38.0219C38.8844 51.6685 39.5844 52.3685 39.5844 53.231C39.5844 54.0935 38.8844 54.7935 38.0219 54.7935Z" fill="#48B0E4"/>
<path d="M65.625 64.1687C62.7531 64.1687 60.4156 61.8344 60.4156 58.9594C60.4156 56.0844 62.7531 53.75 65.625 53.75C68.4968 53.75 70.8343 56.0844 70.8343 58.9594C70.8343 61.8344 68.4968 64.1687 65.625 64.1687Z" fill="#48B0E4"/>
<path d="M42.7094 64.1687C39.8375 64.1687 37.5 61.8312 37.5 58.9594C37.5 56.0875 39.8375 53.75 42.7094 53.75C45.5812 53.75 47.9187 56.0844 47.9187 58.9594C47.9187 61.8344 45.5812 64.1687 42.7094 64.1687Z" fill="#48B0E4"/>
</svg>
