<svg width="100" height="100" viewBox="0 0 100 100" fill="none" xmlns="http://www.w3.org/2000/svg">
<path d="M81.25 100H18.75C8.39375 100 0 91.6062 0 81.25V18.75C0 8.39375 8.39375 0 18.75 0H81.25C91.6062 0 100 8.39375 100 18.75V81.25C100 91.6062 91.6062 100 81.25 100Z" fill="#F0F8EF"/>
<path d="M60.4812 64.5C60.2531 64.4781 60.0219 64.4156 59.8156 64.3531L59.5031 64.3313L58.8344 64L57.1687 63.1875V66.6656H32.1687V31.25C32.1687 30.1031 33.1062 29.1656 34.2531 29.1656H55.0875C56.2344 29.1656 57.1719 30.1031 57.1719 31.25V32.5406L59.0469 31.7281C59.7719 31.4156 60.5438 31.25 61.3344 31.25C61.3344 27.8125 58.5219 25 55.0844 25H34.25C30.8125 25 28 27.8125 28 31.25V68.75C28 72.1875 30.8125 75 34.25 75H55.0844C58.5219 75 61.3344 72.1875 61.3344 68.75V64.5844H60.7719L60.4812 64.5Z" fill="#69D566"/>
<path d="M56.0093 37.4251L67.3468 43.2345L71.8562 41.0157L60.7187 35.5126C60.4687 35.3845 60.1687 35.3845 59.9062 35.5126L56.0093 37.4251Z" fill="#A0EC9E"/>
<path d="M48.7531 41.0155L60.2937 46.7343L64.6124 44.603L65.2374 44.2874L53.8874 38.478L53.2624 38.7968L48.7531 41.0155Z" fill="#A0EC9E"/>
<path d="M61.2156 48.3813L61.2281 60.4157L72.2781 54.647C72.5906 54.4813 72.7906 54.1532 72.7906 53.797V42.6626L68.1062 44.972V49.0313C68.1062 49.5501 67.6812 49.9813 67.1687 49.9813C66.6562 49.9813 66.2312 49.5501 66.2312 49.0313V45.9126L65.6062 46.2157L61.2156 48.3813Z" fill="#A0EC9E"/>
<path d="M52.475 44.9718V44.978L59.3437 48.3718L59.3687 48.3843L59.3562 60.4187L48.3062 54.6499C47.9937 54.4843 47.7937 54.1562 47.7937 53.7999V42.6655L52.475 44.9718Z" fill="#A0EC9E"/>
</svg>
