<svg width="100" height="100" viewBox="0 0 100 100" fill="none" xmlns="http://www.w3.org/2000/svg">
<path d="M81.25 100H18.75C8.39375 100 0 91.6062 0 81.25V18.75C0 8.39375 8.39375 0 18.75 0H81.25C91.6062 0 100 8.39375 100 18.75V81.25C100 91.6062 91.6062 100 81.25 100Z" fill="#EFF8FD"/>
<path d="M54.6874 25H30.7281C27.5625 25 25 27.5625 25 30.7281V63.0187C25 66.1874 27.5625 68.7499 30.7281 68.7499H47.7062C45.9562 65.978 44.7906 62.7093 44.7906 58.9593V53.8749C44.4781 54.0624 44.125 54.1656 43.75 54.1656H33.3344C32.1875 54.1656 31.25 53.2281 31.25 52.0812C31.25 50.9343 32.1875 49.9999 33.3344 49.9999H43.75C44.1468 49.9999 44.5 50.1031 44.8125 50.2906C44.8968 48.5187 45.7281 46.8937 47.0406 45.8312H33.3312C32.1875 45.8343 31.25 44.8968 31.25 43.75C31.25 42.6031 32.1875 41.6656 33.3344 41.6656H52.0843C52.9593 41.6656 53.7093 42.2062 54.0218 42.9781L59.9593 40.9562C60.1062 40.8937 60.2499 40.8531 60.4187 40.8312V30.7281C60.4155 27.5625 57.853 25 54.6874 25ZM41.6656 37.5H33.3312C32.1875 37.5 31.25 36.5625 31.25 35.4156C31.25 34.2687 32.1875 33.3312 33.3344 33.3312H41.6687C42.8156 33.3312 43.7531 34.2687 43.7531 35.4156C43.7531 36.5625 42.8125 37.5 41.6656 37.5Z" fill="#48B0E4"/>
<path d="M73.5875 48.622L62.65 44.9033C62.2156 44.7533 61.7438 44.7533 61.3063 44.9033L50.3688 48.622C49.525 48.9095 48.9563 49.7033 48.9563 50.5939V58.9657C48.9563 69.522 60.6625 74.622 61.1625 74.8344C61.425 74.9438 61.7031 75.0001 61.9781 75.0001C62.2563 75.0001 62.5344 74.9438 62.7938 74.8344C63.2938 74.622 75 69.522 75 58.9657V50.5939C75 49.7033 74.4312 48.9095 73.5875 48.622ZM69.375 56.4595L63.125 64.7938C62.7625 65.2782 62.2094 65.5782 61.6063 65.622C61.5563 65.622 61.5063 65.6251 61.4594 65.6251C60.9094 65.6251 60.3781 65.4063 59.9875 65.0157L55.8219 60.8501C55.0094 60.0376 55.0094 58.7189 55.8219 57.9032C56.6344 57.0876 57.9531 57.0907 58.7688 57.9032L61.2375 60.372L66.0469 53.9595C66.7375 53.0408 68.0438 52.8533 68.9625 53.5439C69.8781 54.2314 70.0656 55.5376 69.375 56.4595Z" fill="#238ABD"/>
</svg>
