<svg width="512" height="494" viewBox="0 0 512 494" fill="none" xmlns="http://www.w3.org/2000/svg">
<path d="M104.902 197.939C129 260.043 177.172 364.952 321.693 342.544C343.173 336.404 369.406 323.409 384.378 305.729C389.218 299.987 393.203 291.282 388.661 285.552C383.384 279.09 371.097 284.959 369.944 293.467C368.791 301.975 375.403 308.861 382.037 313.96C437.029 356.353 499.056 304.361 515.866 282.778" stroke="url(#paint0_linear)" stroke-miterlimit="10" stroke-dasharray="9 9"/>
<path d="M136.139 148.882C132.61 147.562 124.618 144.627 124.618 144.627L123.965 144.344C123.97 143.679 123.867 143.031 123.638 142.293C123.028 139.845 121.594 138.137 120.532 138.416C119.515 138.633 119.097 140.525 119.503 142.729L109.397 139.023C109.448 138.296 109.328 137.541 109.082 136.694C108.472 134.247 107.038 132.538 105.976 132.817C104.914 133.097 104.513 135.097 105.044 137.391L93.648 133.227C93.648 133.227 88.621 114.496 83.5302 114.143C79.2611 116.869 84.0269 135.696 84.0269 135.696L76.1349 144.861C75.496 142.584 74.142 141.028 73.08 141.308C72.0179 141.587 71.5887 143.758 72.1994 146.206C72.4447 147.052 72.7354 147.835 73.0996 148.386L66.0416 156.534C65.3745 154.427 64.1002 153.025 63.0836 153.242C62.0215 153.521 61.5922 155.691 62.203 158.139C62.3686 158.832 62.642 159.508 62.9609 160.121L62.49 160.639C62.49 160.639 56.9356 167.109 54.4619 169.991C51.9883 172.874 53.1227 176.179 53.1227 176.179L88.7362 154.864C92.1665 168.427 95.788 175.542 95.788 175.542L86.8917 185.696L88.0445 190.16L99.1434 183.418C101.108 187.421 102.636 187.289 102.636 187.289C102.636 187.289 104.033 186.68 103.823 182.232L116.72 182.617L115.567 178.153L102.899 173.637C102.899 173.637 102.571 165.667 98.8344 152.264L140.371 153.576C140.371 153.576 139.731 150.248 136.139 148.882Z" fill="url(#paint1_linear)"/>
<defs>
<linearGradient id="paint0_linear" x1="177.462" y1="111.6" x2="433.896" y2="366.98" gradientUnits="userSpaceOnUse">
<stop stop-color="#48B0E4"/>
<stop offset="1" stop-color="#238ABD"/>
</linearGradient>
<linearGradient id="paint1_linear" x1="64.3033" y1="140.368" x2="120.412" y2="181.083" gradientUnits="userSpaceOnUse">
<stop stop-color="#BAE5FF"/>
<stop offset="1" stop-color="#48B0E4"/>
</linearGradient>
</defs>
</svg>
