<svg width="407" height="304" viewBox="0 0 407 304" fill="none" xmlns="http://www.w3.org/2000/svg">
<path d="M406.389 258.282C372.811 282.939 241.097 353.882 138.197 242.493C122.166 225.189 116.1 199.667 118.05 176.308C118.699 168.738 122.166 159.654 129.748 158.788C138.413 157.923 143.179 170.901 137.763 177.822C132.347 184.743 122.382 184.96 113.717 183.878C41.7946 175.01 34.2124 93.4688 37.6786 66" stroke="white" stroke-miterlimit="10" stroke-dasharray="6 6"/>
<path d="M75.8794 44.753C73.6862 42.5947 68.7028 37.7484 68.7028 37.7484L68.3096 37.3197C68.5343 36.8256 68.6728 36.3085 68.7482 35.682C69.1068 33.6534 68.6058 31.9025 67.7209 31.7577C66.8906 31.5813 65.9495 32.8533 65.5193 34.6317L59.2154 28.5077C59.4948 27.9821 59.6564 27.3788 59.7548 26.6661C60.1134 24.6375 59.6124 22.8866 58.7275 22.7418C57.8426 22.5969 56.8784 23.9551 56.5113 25.8429L49.3979 18.9475C49.3979 18.9475 51.8779 3.30745 48.1989 1.35124C44.1089 1.96388 41.4019 17.5893 41.4019 17.5893L32.4686 21.7997C32.7495 19.8888 32.257 18.2788 31.372 18.1339C30.4871 17.9891 29.4452 19.465 29.0866 21.4936C28.9881 22.2062 28.9442 22.8873 29.0327 23.4191L21.0598 27.1479C21.263 25.3548 20.7789 23.8855 19.9486 23.7091C19.0637 23.5643 18.0218 25.0402 17.6632 27.0688C17.5562 27.6406 17.5355 28.2355 17.5693 28.7988L17.0461 29.0281C17.0461 29.0281 10.7522 32.006 7.94889 33.3331C5.14556 34.6602 4.89241 37.5022 4.89241 37.5022L38.5394 33.4502C36.5872 44.7052 36.922 51.2153 36.922 51.2153L26.9107 55.8295L26.2858 59.5419L36.8051 58.2047C36.939 61.8434 38.1225 62.253 38.1225 62.253C38.1225 62.253 39.3668 62.2633 40.6896 58.8765L50.1793 63.4527L50.8041 59.7403L42.858 52.1599C42.858 52.1599 45.2643 46.1074 46.9348 34.8693L77.4746 49.661C77.4746 49.661 78.1041 46.966 75.8794 44.753Z" fill="#DEF4FF"/>
</svg>
