<svg width="408" height="304" viewBox="0 0 408 304" fill="none" xmlns="http://www.w3.org/2000/svg">
<path d="M1.00002 258.282C34.5782 282.939 166.291 353.882 269.192 242.493C285.223 225.189 291.289 199.667 289.339 176.308C288.689 168.738 285.223 159.654 277.641 158.788C268.976 157.923 264.21 170.901 269.626 177.822C275.041 184.743 285.007 184.96 293.672 183.878C365.594 175.01 373.176 93.4688 369.71 66" stroke="white" stroke-miterlimit="10" stroke-dasharray="6 6"/>
<path d="M331.509 44.7533C333.702 42.5949 338.686 37.7486 338.686 37.7486L339.079 37.3199C338.854 36.8259 338.716 36.3087 338.64 35.6823C338.282 33.6537 338.783 31.9028 339.668 31.7579C340.498 31.5815 341.439 32.8535 341.869 34.632L348.173 28.5079C347.894 27.9823 347.732 27.379 347.634 26.6664C347.275 24.6378 347.776 22.8869 348.661 22.742C349.546 22.5972 350.51 23.9553 350.877 25.8431L357.991 18.9478C357.991 18.9478 355.511 3.30769 359.19 1.35149C363.28 1.96412 365.987 17.5895 365.987 17.5895L374.92 21.7999C374.639 19.8891 375.132 18.279 376.017 18.1342C376.902 17.9893 377.944 19.4652 378.302 21.4938C378.401 22.2064 378.444 22.8875 378.356 23.4193L386.329 27.1481C386.126 25.355 386.61 23.8858 387.44 23.7094C388.325 23.5645 389.367 25.0404 389.725 27.069C389.832 27.6408 389.853 28.2357 389.819 28.7991L390.343 29.0283C390.343 29.0283 396.636 32.0063 399.44 33.3333C402.243 34.6604 402.496 37.5025 402.496 37.5025L368.849 33.4504C370.801 44.7054 370.467 51.2155 370.467 51.2155L380.478 55.8298L381.103 59.5422L370.584 58.205C370.45 61.8436 369.266 62.2533 369.266 62.2533C369.266 62.2533 368.022 62.2635 366.699 58.8768L357.209 63.4529L356.585 59.7405L364.531 52.1601C364.531 52.1601 362.124 46.1077 360.454 34.8695L329.914 49.6613C329.914 49.6613 329.285 46.9663 331.509 44.7533Z" fill="#DEF4FF"/>
</svg>
