<svg width="100" height="100" viewBox="0 0 100 100" fill="none" xmlns="http://www.w3.org/2000/svg">
<path d="M81.25 100H18.75C8.39375 100 0 91.6062 0 81.25V18.75C0 8.39375 8.39375 0 18.75 0H81.25C91.6062 0 100 8.39375 100 18.75V81.25C100 91.6062 91.6062 100 81.25 100Z" fill="#F0F8EF"/>
<path d="M73.9406 28.8031L63.0031 25.0844C62.6781 24.9719 62.325 24.9719 61.9969 25.0844L51.0594 28.8031C50.425 29.0187 50 29.6125 50 30.2844V38.6562C50 48.875 61.4031 53.8375 61.8906 54.0469C62.0875 54.1281 62.2937 54.1719 62.5 54.1719C62.7063 54.1719 62.9156 54.1313 63.1094 54.0469C63.5969 53.8375 75 48.8719 75 38.6531V30.2844C75 29.6125 74.575 29.0187 73.9406 28.8031ZM69.3469 36.7031L63.6187 43.9937C63.2687 44.4406 62.75 44.725 62.1844 44.7812C62.1188 44.7875 62.0469 44.7906 61.9812 44.7906C61.4875 44.7906 61.0031 44.6156 60.625 44.2906L56.9781 41.1656C56.1031 40.4156 56 39.1031 56.7531 38.2281C57.5031 37.3562 58.8187 37.2531 59.6906 38.0031L61.6875 39.7125L66.075 34.1312C66.7844 33.2281 68.0938 33.0687 69 33.7812C69.9 34.4906 70.0594 35.8 69.3469 36.7031Z" fill="#A0EC9E"/>
<path d="M26.0219 50.0031C25.4562 50.0156 25 50.4781 25 51.0469V70.3125C25 70.6 25.2344 70.8344 25.5219 70.8344H30.4625C30.9281 70.8344 31.3375 70.525 31.4656 70.0781L36.075 53.8313C36.3719 52.7813 35.8094 51.6781 34.7844 51.3063C32.8937 50.6156 30 49.9375 26.0219 50.0031Z" fill="#69D566"/>
<path d="M70.8345 61.4594C66.6688 61.4594 58.3345 66.7344 54.1657 66.7344C50.0001 66.7344 45.3126 63.5437 45.3126 63.5437C45.3126 63.5437 50.9251 64.5844 54.1657 64.5844C57.4095 64.5844 58.3313 63.4781 58.3313 61.9812C58.3313 58.3344 52.1376 57.7687 49.0063 57.2937C45.9313 55.5812 44.3345 54.2281 39.2407 53.7969C39.2095 54.0938 39.1626 54.3875 39.0813 54.6844L34.897 69.4344C39.6376 71.5906 47.8001 75.0063 52.0845 75.0063C58.3345 75.0063 75.0032 66.6719 75.0032 64.5906C75.0001 62.5 72.9188 61.4594 70.8345 61.4594Z" fill="#69D566"/>
</svg>
