<svg width="100" height="100" viewBox="0 0 100 100" fill="none" xmlns="http://www.w3.org/2000/svg">
<path d="M81.25 100H18.75C8.39375 100 0 91.6062 0 81.25V18.75C0 8.39375 8.39375 0 18.75 0H81.25C91.6062 0 100 8.39375 100 18.75V81.25C100 91.6062 91.6062 100 81.25 100Z" fill="#EFF8FD"/>
<path d="M58.5717 75C58.4686 75 58.3654 74.9969 58.2623 74.9875C40.5811 73.6188 26.2873 59.3312 25.0092 41.7531C24.9311 40.6656 25.3061 39.5844 26.0373 38.7906C26.7686 38 27.7623 37.5594 28.8404 37.5531L36.0279 37.5C37.8217 37.5 39.3654 38.7 39.7967 40.4188L41.2967 46.3781C41.6779 47.8906 41.1123 49.4719 39.8592 50.4062L37.2686 52.3375C39.6623 56.5906 43.2404 60.1906 47.5248 62.6469L49.5373 59.9844C50.4717 58.7469 52.0467 58.1844 53.5686 58.5594L59.5686 60.05C61.2936 60.4781 62.4998 62.0156 62.4998 63.7875V71.1438C62.4998 72.2219 62.0654 73.2188 61.2717 73.95C60.5436 74.625 59.5717 75 58.5717 75Z" fill="#238ABD"/>
<path d="M56.2498 25C49.3154 25 43.2654 28.7937 40.0186 34.4031C41.8779 35.4594 43.2873 37.2281 43.8342 39.4062L45.3342 45.3625C46.0686 48.2812 45.1186 51.3156 42.9061 53.2906C43.9904 54.6562 45.2279 55.9 46.5967 56.9969C48.1154 55.2844 50.3217 54.2813 52.6217 54.2813C53.2717 54.2813 53.9248 54.3594 54.5592 54.5187L60.5686 56.0125C62.8092 56.5687 64.6279 58.025 65.6779 59.9375C71.2436 56.675 74.9998 50.65 74.9998 43.75C74.9998 33.4125 66.5873 25 56.2498 25ZM54.6873 46.875C55.5498 46.875 56.2498 47.575 56.2498 48.4375C56.2498 49.3 55.5498 50 54.6873 50H49.4779C48.6154 50 47.9154 49.3 47.9154 48.4375V45.0531C47.9154 42.9 49.6686 41.1469 51.8217 41.1469C52.5404 41.1469 53.1248 40.5625 53.1248 39.8438C53.1248 39.125 52.5404 38.5406 51.8217 38.5406H49.4779C48.6154 38.5406 47.9154 37.8406 47.9154 36.9781C47.9154 36.1156 48.6154 35.4156 49.4779 35.4156H51.8217C54.2623 35.4156 56.2498 37.4 56.2498 39.8438C56.2498 42.2875 54.2654 44.2719 51.8217 44.2719C51.3904 44.2719 51.0404 44.6219 51.0404 45.0531V46.875H54.6873ZM66.6654 48.4375C66.6654 49.3 65.9654 50 65.1029 50C64.2404 50 63.5404 49.3 63.5404 48.4375V44.2719H61.9779C59.9686 44.2719 58.3311 42.6375 58.3311 40.625V36.9781C58.3311 36.1156 59.0311 35.4156 59.8936 35.4156C60.7561 35.4156 61.4561 36.1156 61.4561 36.9781V40.625C61.4561 40.9125 61.6904 41.1469 61.9779 41.1469H63.5404V36.9812C63.5404 36.1187 64.2404 35.4187 65.1029 35.4187C65.9654 35.4187 66.6654 36.1187 66.6654 36.9812V48.4375Z" fill="#48B0E4"/>
</svg>
