<svg width="100" height="100" viewBox="0 0 100 100" fill="none" xmlns="http://www.w3.org/2000/svg">
<path d="M81.25 100H18.75C8.39375 100 0 91.6062 0 81.25V18.75C0 8.39375 8.39375 0 18.75 0H81.25C91.6062 0 100 8.39375 100 18.75V81.25C100 91.6062 91.6062 100 81.25 100Z" fill="#F0F8EF"/>
<path d="M64.5843 41.1249V54.8124C63.5624 55.5842 62.2093 55.7905 60.9999 55.3749L60.603 55.228C61.8311 52.8124 61.3749 49.853 59.4374 47.8749L52.4155 40.853L57.9999 38.8936L64.5843 41.1249Z" fill="#69D566"/>
<path d="M47.6467 50.4562L54.9998 57.6875V57.7093C54.8123 58.375 54.4592 58.9812 53.9592 59.4812C53.0623 60.3562 51.8748 60.7937 50.7092 60.7312L42.8748 52.8968C42.6873 53.0625 42.6029 53.2937 42.6029 53.5218C42.6029 53.7937 42.7279 54.0843 42.9998 54.25L50.4373 61.5406C50.2279 62.0406 49.9373 62.5 49.5404 62.8937C48.6873 63.7468 47.5623 64.1656 46.4373 64.1656C45.3529 64.1656 44.2717 63.7687 43.4373 62.9562L38.8529 58.8093C37.8529 57.8937 36.6873 57.2468 35.3936 56.85C35.4154 56.7875 35.4154 56.725 35.4154 56.6625V39.1625L40.7686 36.9531C42.3092 36.3062 44.0404 36.4312 45.4561 37.2031L45.1248 37.375C43.3342 38.2718 42.0623 39.9781 41.7092 42.0218C41.3967 44 42.0623 46.0437 43.4811 47.4812C44.5217 48.5218 45.9186 49.1687 47.3967 49.2937C47.2936 49.4406 47.2498 49.5843 47.2498 49.7312C47.2498 50.0187 47.3748 50.2906 47.6467 50.4562Z" fill="#69D566"/>
<path d="M58.6247 54.5624C58.4591 54.8967 58.2497 55.1874 57.9778 55.4592C57.1653 56.2717 56.206 56.7311 55.206 56.8124L47.6841 49.3124H47.9341C48.9341 49.3124 49.9341 49.0624 50.8091 48.6249L51.4747 48.2717L55.0591 46.4592L57.956 49.3561C57.956 49.3561 57.956 49.3561 57.9778 49.378C59.3528 50.7686 59.5841 52.9155 58.6247 54.5624Z" fill="#69D566"/>
<path d="M31.7719 58.2281H26.5625C25.7 58.2281 25 57.5281 25 56.6656V38.9562C25 38.0937 25.7 37.3937 26.5625 37.3937H31.7719C32.6344 37.3937 33.3344 38.0937 33.3344 38.9562V56.6656C33.3344 57.5281 32.6344 58.2281 31.7719 58.2281Z" fill="#A0EC9E"/>
<path d="M73.4374 58.2281H68.228C67.3655 58.2281 66.6655 57.5281 66.6655 56.6656V38.9562C66.6655 38.0937 67.3655 37.3937 68.228 37.3937H73.4374C74.2999 37.3937 74.9999 38.0937 74.9999 38.9562V56.6656C74.9999 57.5281 74.2999 58.2281 73.4374 58.2281Z" fill="#A0EC9E"/>
<path d="M62.3752 37.6031C62.3533 37.6031 62.3346 37.5812 62.2908 37.5812L57.5221 35.625C56.0439 35.0218 54.3752 35.0625 52.9377 35.7906L47.2502 38.6437L46.0627 39.2281C44.8533 39.8312 44.0002 41 43.7721 42.3312C43.5627 43.6656 44.0002 45.0406 44.9596 45.9968C45.7721 46.8093 46.8564 47.225 47.9377 47.225C48.5846 47.225 49.2502 47.0781 49.8533 46.7656L50.5408 46.4125L53.5189 44.9125L61.8096 40.7468L64.5814 41.8937V38.9562C64.5814 38.8093 64.5814 38.6656 64.6221 38.5406L62.3752 37.6031Z" fill="#69D566"/>
</svg>
