<svg width="100" height="100" viewBox="0 0 100 100" fill="none" xmlns="http://www.w3.org/2000/svg">
<path d="M81.25 100H18.75C8.39375 100 0 91.6062 0 81.25V18.75C0 8.39375 8.39375 0 18.75 0H81.25C91.6062 0 100 8.39375 100 18.75V81.25C100 91.6062 91.6062 100 81.25 100Z" fill="#EFF8FD"/>
<path d="M59.8689 40.5L57.5782 42.7906C57.9532 43.5187 58.2876 44.2688 58.5376 45.0406C59.4751 44.875 60.4532 44.7906 61.4532 44.7906H61.7251C61.2876 43.2719 60.6626 41.8344 59.8689 40.5ZM24.9751 50C24.9751 60.3344 33.3907 68.75 43.7251 68.75C44.622 68.75 45.5157 68.6875 46.3907 68.5625C45.9313 67.6031 45.5563 66.6031 45.2876 65.5406C44.7657 65.6031 44.247 65.625 43.7251 65.625C35.1001 65.625 28.1001 58.625 28.1001 50C28.1001 41.375 35.1001 34.375 43.7251 34.375C46.3282 34.375 48.7876 35.0219 50.9532 36.1656L53.2438 33.875C50.4532 32.2094 47.2032 31.25 43.7251 31.25C33.3907 31.25 24.9751 39.6656 24.9751 50Z" fill="#48B0E4"/>
<path d="M32.2656 50C32.2656 56.3125 37.4125 61.4594 43.725 61.4594C44.0781 61.4594 44.4344 61.4375 44.7875 61.3968C44.7875 60.3125 44.8906 59.25 45.1 58.2094C44.6625 58.2937 44.2031 58.3344 43.725 58.3344C39.1219 58.3344 35.3906 54.6062 35.3906 50C35.3906 45.3937 39.1187 41.6656 43.725 41.6656C44.2656 41.6656 44.7875 41.7062 45.2875 41.8312L47.8094 39.3094C46.5375 38.8094 45.1625 38.5375 43.725 38.5375C37.4125 38.5406 32.2656 43.6875 32.2656 50Z" fill="#48B0E4"/>
<path d="M43.7252 45.8344C41.4346 45.8344 39.5596 47.7094 39.5596 50C39.5596 52.2906 41.4346 54.1656 43.7252 54.1656C46.0158 54.1656 47.8908 52.2906 47.8908 50C47.8908 47.7094 46.0158 45.8344 43.7252 45.8344ZM43.7252 51.0406C43.1408 51.0406 42.6846 50.5812 42.6846 50C42.6846 49.4187 43.1439 48.9594 43.7252 48.9594C44.3096 48.9594 44.7658 49.4187 44.7658 50C44.7658 50.5812 44.3064 51.0406 43.7252 51.0406Z" fill="#48B0E4"/>
<path d="M43.7439 51.5626C43.3439 51.5626 42.9439 51.4094 42.6377 51.1063C42.0283 50.4969 42.0283 49.5063 42.6377 48.8969L56.1783 35.3563C56.7877 34.7469 57.7783 34.7469 58.3877 35.3563C58.9971 35.9657 58.9971 36.9563 58.3877 37.5657L44.8471 51.1063C44.5439 51.4094 44.1439 51.5626 43.7439 51.5626Z" fill="#238ABD"/>
<path d="M63.0155 37.5H57.8062C56.9437 37.5 56.2437 36.8 56.2437 35.9375V30.7282C56.2437 30.3157 56.4093 29.9157 56.6999 29.6219L60.8655 25.4563C61.3124 25.0094 61.9843 24.875 62.5687 25.1188C63.153 25.3594 63.5343 25.9313 63.5343 26.5625V30.2094H67.1812C67.8124 30.2094 68.3812 30.5907 68.6249 31.175C68.8655 31.7594 68.7343 32.4313 68.2874 32.8782L64.1218 37.0438C63.828 37.3344 63.4312 37.5 63.0155 37.5Z" fill="#238ABD"/>
<path d="M61.4532 47.9156C53.9876 47.9156 47.9126 53.9907 47.9126 61.4563C47.9126 68.9219 53.9876 75 61.4532 75C68.9189 75 74.9938 68.925 74.9938 61.4594C74.9938 53.9938 68.9189 47.9156 61.4532 47.9156ZM67.2876 58.875L60.5157 66.1656C60.2095 66.4969 59.7907 66.6656 59.3688 66.6656C59.0063 66.6656 58.647 66.5406 58.3501 66.2906L54.7032 63.1656C54.047 62.6031 53.972 61.6188 54.5345 60.9625C55.097 60.3063 56.0813 60.2282 56.7376 60.7938L59.2438 62.9407L64.9938 56.75C65.5814 56.1188 66.5688 56.0813 67.2032 56.6688C67.8376 57.2563 67.872 58.2438 67.2876 58.875Z" fill="#238ABD"/>
</svg>
