<svg width="100" height="100" viewBox="0 0 100 100" fill="none" xmlns="http://www.w3.org/2000/svg">
<path d="M81.25 100H18.75C8.39375 100 0 91.6062 0 81.25V18.75C0 8.39375 8.39375 0 18.75 0H81.25C91.6062 0 100 8.39375 100 18.75V81.25C100 91.6062 91.6062 100 81.25 100Z" fill="#EFF8FD"/>
<path d="M58.3345 70.8343H54.1688V66.6687H45.8345V70.8343H41.6688C40.5188 70.8343 39.5845 71.7687 39.5845 72.9187C39.5845 74.0687 40.5157 75 41.6657 75H58.3313C59.4813 75 60.4157 74.0656 60.4157 72.9156C60.4157 71.7656 59.4845 70.8343 58.3345 70.8343Z" fill="#48B0E4"/>
<path d="M57.1688 25H42.8345C41.0438 25 39.5845 26.4562 39.5845 28.25V44.6687C39.5845 46.4625 41.0407 47.9187 42.8345 47.9187H52.9813C53.922 47.9187 54.8095 47.5531 55.4782 46.8844L59.3845 42.9781C60.0438 42.3219 60.4188 41.4125 60.4188 40.4813V28.25C60.4157 26.4562 58.9595 25 57.1688 25ZM55.4063 33.7875L49.6188 40.625C49.322 40.975 48.8876 41.1781 48.4251 41.1781C47.897 41.1344 47.522 40.9719 47.2251 40.6188L44.5876 37.4625C44.0345 36.8 44.122 35.8156 44.7845 35.2625C45.447 34.7094 46.4313 34.8 46.9845 35.4594L48.4313 37.1906L53.0188 31.7719C53.5751 31.1125 54.5626 31.0281 55.2188 31.5875C55.8813 32.1437 55.9626 33.1313 55.4063 33.7875Z" fill="#238ABD"/>
<path d="M71.3531 33.3344H63.5406V37.5H70.8313V62.5H29.1656V37.5H36.4563V33.3344H28.6438C26.6344 33.3344 25 34.9687 25 36.9781V63.0187C25 65.0281 26.6344 66.6656 28.6469 66.6656H71.3562C73.3656 66.6656 75.0031 65.0312 75.0031 63.0187V36.9781C75 34.9687 73.3656 33.3344 71.3531 33.3344Z" fill="#48B0E4"/>
</svg>
