<svg width="100" height="100" viewBox="0 0 100 100" fill="none" xmlns="http://www.w3.org/2000/svg">
<path d="M81.25 100H18.75C8.39375 100 0 91.6062 0 81.25V18.75C0 8.39375 8.39375 0 18.75 0H81.25C91.6062 0 100 8.39375 100 18.75V81.25C100 91.6062 91.6062 100 81.25 100Z" fill="#F0F8EF"/>
<path d="M51.5718 25.0781V49.6406L62.2593 71.7875H62.2812C69.8843 67.4969 75.0093 59.35 75.0093 50.0156C75.0093 36.7437 64.6343 25.8687 51.5718 25.0781Z" fill="#A0EC9E"/>
<path d="M49.0095 51.5781H25.0532C25.4282 57.6812 27.9907 63.35 32.3438 67.6813C34.697 70.0563 37.447 71.8906 40.4282 73.1188C43.4282 74.3688 46.6782 75.0156 50.0126 75.0156C53.347 75.0156 56.5126 74.3688 59.4282 73.1625L49.0095 51.5781Z" fill="#69D566"/>
<path d="M25.0718 48.4531H48.4468V25.0781C35.9062 25.8281 25.8218 35.9125 25.0718 48.4531Z" fill="#69D566"/>
</svg>
