<svg width="585" height="232" viewBox="0 0 585 232" fill="none" xmlns="http://www.w3.org/2000/svg">
<path d="M75 168.955C121.269 202.931 302.764 300.688 444.556 147.198C466.646 123.355 475.004 88.187 472.318 55.999C471.422 45.5677 466.646 33.0502 456.198 31.858C444.258 30.6659 437.69 48.5481 445.153 58.0853C452.616 67.6225 466.347 67.9205 478.288 66.4303C577.393 54.2108 587.841 -58.1493 583.065 -96" stroke="url(#paint0_linear)" stroke-width="0.5" stroke-miterlimit="10" stroke-dasharray="3.01 3.01"/>
<path d="M89.2552 110.662C85.0154 110.696 75.4377 110.829 75.4377 110.829L74.6368 110.795C74.3744 110.094 74.0055 109.456 73.4686 108.772C71.8414 106.446 69.6472 105.228 68.6438 105.949C67.663 106.586 67.9853 108.742 69.2991 110.894L57.1898 111.07C56.9499 110.285 56.5194 109.54 55.9211 108.75C54.2939 106.424 52.0997 105.206 51.0963 105.927C50.0929 106.648 50.4768 108.911 51.9585 111.108L38.309 111.32C38.309 111.32 25.4864 93.665 19.9956 95.3437C16.6074 99.9257 29.1946 117.788 29.1946 117.788L24.5928 130.595C23.0046 128.459 20.9559 127.37 19.9525 128.091C18.9492 128.813 19.372 131.266 20.9992 133.592C21.5976 134.382 22.2185 135.088 22.8229 135.52L18.6876 146.922C17.1384 144.977 15.2352 144.017 14.2543 144.654C13.2509 145.375 13.6738 147.829 15.301 150.154C15.7539 150.816 16.3133 151.416 16.8952 151.932L16.6087 152.665C16.6087 152.665 13.3779 161.699 11.9395 165.723C10.5011 169.748 13.0236 172.764 13.0236 172.764L41.8597 136.031C50.924 148.9 57.5933 154.917 57.5933 154.917L52.3346 169.167L55.3431 173.393L64.2897 161.841C67.9655 165.256 69.5178 164.502 69.5178 164.502C69.5178 164.502 70.7402 163.299 68.7291 158.711L82.4343 153.923L79.4259 149.697L64.2975 150.053C64.2975 150.053 60.7448 141.812 51.4225 129.234L95.5917 113.89C95.5917 113.89 93.5791 110.65 89.2552 110.662Z" fill="url(#paint1_linear)"/>
<defs>
<linearGradient id="paint0_linear" x1="64.2703" y1="67.7885" x2="584.988" y2="67.7885" gradientUnits="userSpaceOnUse">
<stop stop-color="#48B0E4"/>
<stop offset="1" stop-color="#238ABD"/>
</linearGradient>
<linearGradient id="paint1_linear" x1="10.3528" y1="130.637" x2="85.695" y2="150.825" gradientUnits="userSpaceOnUse">
<stop stop-color="#BAE5FF"/>
<stop offset="1" stop-color="#48B0E4"/>
</linearGradient>
</defs>
</svg>
